<mxfile host="app.diagrams.net" modified="2023-12-21T18:12:27.598Z" agent="Mozilla/5.0 (X11; Linux x86_64; rv:120.0) Gecko/20100101 Firefox/120.0" etag="rXr8Vem-Or3f7fzScXSU" version="22.1.11" type="device">
  <diagram name="Page-1" id="6bfOLVY1j04Zr0jwOrWD">
    <mxGraphModel dx="2910" dy="1126" grid="1" gridSize="10" guides="1" tooltips="1" connect="1" arrows="1" fold="1" page="1" pageScale="1" pageWidth="850" pageHeight="1100" math="0" shadow="0">
      <root>
        <mxCell id="0" />
        <mxCell id="1" parent="0" />
        <mxCell id="RCel6x4LegAwR6A3-bCa-1" value="" style="rounded=0;whiteSpace=wrap;html=1;" vertex="1" parent="1">
          <mxGeometry x="-40" y="370" width="1000" height="925" as="geometry" />
        </mxCell>
        <mxCell id="RCel6x4LegAwR6A3-bCa-4" value="" style="sketch=0;outlineConnect=0;fontColor=#232F3E;gradientColor=none;fillColor=#8C4FFF;strokeColor=none;dashed=0;verticalLabelPosition=bottom;verticalAlign=top;align=center;html=1;fontSize=12;fontStyle=0;aspect=fixed;pointerEvents=1;shape=mxgraph.aws4.internet_gateway;" vertex="1" parent="1">
          <mxGeometry x="422.5" y="330" width="78" height="78" as="geometry" />
        </mxCell>
        <mxCell id="RCel6x4LegAwR6A3-bCa-10" value="" style="sketch=0;outlineConnect=0;fontColor=#232F3E;gradientColor=none;fillColor=#8C4FFF;strokeColor=none;dashed=0;verticalLabelPosition=bottom;verticalAlign=top;align=center;html=1;fontSize=12;fontStyle=0;aspect=fixed;pointerEvents=1;shape=mxgraph.aws4.nat_gateway;" vertex="1" parent="1">
          <mxGeometry x="146" y="634" width="78" height="78" as="geometry" />
        </mxCell>
        <mxCell id="RCel6x4LegAwR6A3-bCa-12" value="" style="outlineConnect=0;dashed=0;verticalLabelPosition=bottom;verticalAlign=top;align=center;html=1;shape=mxgraph.aws3.application_load_balancer;fillColor=#F58534;gradientColor=none;" vertex="1" parent="1">
          <mxGeometry x="427" y="657" width="69" height="72" as="geometry" />
        </mxCell>
        <mxCell id="RCel6x4LegAwR6A3-bCa-16" value="" style="rounded=0;whiteSpace=wrap;html=1;" vertex="1" parent="1">
          <mxGeometry x="40" y="803" width="300" height="320" as="geometry" />
        </mxCell>
        <mxCell id="RCel6x4LegAwR6A3-bCa-42" value="SECURITY GROUP" style="text;html=1;strokeColor=none;fillColor=none;align=center;verticalAlign=middle;whiteSpace=wrap;rounded=0;" vertex="1" parent="1">
          <mxGeometry x="392.5" y="620" width="60" height="30" as="geometry" />
        </mxCell>
        <mxCell id="RCel6x4LegAwR6A3-bCa-13" value="" style="rounded=0;whiteSpace=wrap;html=1;" vertex="1" parent="1">
          <mxGeometry x="20" y="613" width="350" height="620" as="geometry" />
        </mxCell>
        <mxCell id="RCel6x4LegAwR6A3-bCa-6" value="" style="rounded=0;whiteSpace=wrap;html=1;" vertex="1" parent="1">
          <mxGeometry x="40" y="643" width="310" height="140" as="geometry" />
        </mxCell>
        <mxCell id="RCel6x4LegAwR6A3-bCa-8" value="" style="rounded=0;whiteSpace=wrap;html=1;" vertex="1" parent="1">
          <mxGeometry x="40" y="793" width="310" height="420" as="geometry" />
        </mxCell>
        <mxCell id="RCel6x4LegAwR6A3-bCa-23" value="" style="group" vertex="1" connectable="0" parent="1">
          <mxGeometry x="401" y="1083" width="95" height="90" as="geometry" />
        </mxCell>
        <mxCell id="RCel6x4LegAwR6A3-bCa-14" value="" style="sketch=0;outlineConnect=0;fontColor=#232F3E;gradientColor=none;fillColor=#ED7100;strokeColor=none;dashed=0;verticalLabelPosition=bottom;verticalAlign=top;align=center;html=1;fontSize=12;fontStyle=0;aspect=fixed;pointerEvents=1;shape=mxgraph.aws4.auto_scaling2;" vertex="1" parent="RCel6x4LegAwR6A3-bCa-23">
          <mxGeometry x="23.5" width="48" height="48" as="geometry" />
        </mxCell>
        <mxCell id="RCel6x4LegAwR6A3-bCa-22" value="AUTOSCALING" style="text;html=1;strokeColor=none;fillColor=none;align=center;verticalAlign=middle;whiteSpace=wrap;rounded=0;" vertex="1" parent="RCel6x4LegAwR6A3-bCa-23">
          <mxGeometry y="60" width="95" height="30" as="geometry" />
        </mxCell>
        <mxCell id="RCel6x4LegAwR6A3-bCa-26" value="" style="group" vertex="1" connectable="0" parent="1">
          <mxGeometry x="413.5" y="853" width="436.5" height="277.5" as="geometry" />
        </mxCell>
        <mxCell id="RCel6x4LegAwR6A3-bCa-18" value="" style="sketch=0;points=[[0,0,0],[0.25,0,0],[0.5,0,0],[0.75,0,0],[1,0,0],[0,1,0],[0.25,1,0],[0.5,1,0],[0.75,1,0],[1,1,0],[0,0.25,0],[0,0.5,0],[0,0.75,0],[1,0.25,0],[1,0.5,0],[1,0.75,0]];outlineConnect=0;fontColor=#232F3E;fillColor=#ED7100;strokeColor=#ffffff;dashed=0;verticalLabelPosition=bottom;verticalAlign=top;align=center;html=1;fontSize=12;fontStyle=0;aspect=fixed;shape=mxgraph.aws4.resourceIcon;resIcon=mxgraph.aws4.ecs;" vertex="1" parent="RCel6x4LegAwR6A3-bCa-26">
          <mxGeometry width="78" height="78" as="geometry" />
        </mxCell>
        <mxCell id="RCel6x4LegAwR6A3-bCa-20" value="" style="sketch=0;points=[[0,0,0],[0.25,0,0],[0.5,0,0],[0.75,0,0],[1,0,0],[0,1,0],[0.25,1,0],[0.5,1,0],[0.75,1,0],[1,1,0],[0,0.25,0],[0,0.5,0],[0,0.75,0],[1,0.25,0],[1,0.5,0],[1,0.75,0]];outlineConnect=0;fontColor=#232F3E;fillColor=#ED7100;strokeColor=#ffffff;dashed=0;verticalLabelPosition=bottom;verticalAlign=top;align=center;html=1;fontSize=12;fontStyle=0;aspect=fixed;shape=mxgraph.aws4.resourceIcon;resIcon=mxgraph.aws4.fargate;" vertex="1" parent="RCel6x4LegAwR6A3-bCa-26">
          <mxGeometry y="108" width="78" height="78" as="geometry" />
        </mxCell>
        <mxCell id="RCel6x4LegAwR6A3-bCa-25" value="ECS ON FARGATE" style="text;html=1;strokeColor=none;fillColor=none;align=center;verticalAlign=middle;whiteSpace=wrap;rounded=0;" vertex="1" parent="RCel6x4LegAwR6A3-bCa-26">
          <mxGeometry x="9" y="78" width="60" height="30" as="geometry" />
        </mxCell>
        <mxCell id="RCel6x4LegAwR6A3-bCa-30" value="PRIVATE SUBNET" style="text;html=1;strokeColor=none;fillColor=none;align=center;verticalAlign=middle;whiteSpace=wrap;rounded=0;" vertex="1" parent="1">
          <mxGeometry x="165" y="793" width="60" height="30" as="geometry" />
        </mxCell>
        <mxCell id="RCel6x4LegAwR6A3-bCa-31" value="PUBLIC SUBNET" style="text;html=1;strokeColor=none;fillColor=none;align=center;verticalAlign=middle;whiteSpace=wrap;rounded=0;" vertex="1" parent="1">
          <mxGeometry x="165" y="643" width="60" height="30" as="geometry" />
        </mxCell>
        <mxCell id="RCel6x4LegAwR6A3-bCa-32" value="" style="sketch=0;outlineConnect=0;fontColor=#232F3E;gradientColor=none;fillColor=#8C4FFF;strokeColor=none;dashed=0;verticalLabelPosition=bottom;verticalAlign=top;align=center;html=1;fontSize=12;fontStyle=0;aspect=fixed;pointerEvents=1;shape=mxgraph.aws4.nat_gateway;" vertex="1" parent="1">
          <mxGeometry x="156" y="683" width="78" height="78" as="geometry" />
        </mxCell>
        <mxCell id="RCel6x4LegAwR6A3-bCa-33" value="NAT" style="text;html=1;strokeColor=none;fillColor=none;align=center;verticalAlign=middle;whiteSpace=wrap;rounded=0;" vertex="1" parent="1">
          <mxGeometry x="165" y="753" width="60" height="30" as="geometry" />
        </mxCell>
        <mxCell id="RCel6x4LegAwR6A3-bCa-34" value="ALB" style="text;html=1;strokeColor=none;fillColor=none;align=center;verticalAlign=middle;whiteSpace=wrap;rounded=0;" vertex="1" parent="1">
          <mxGeometry x="431.5" y="748" width="60" height="30" as="geometry" />
        </mxCell>
        <mxCell id="RCel6x4LegAwR6A3-bCa-38" value="" style="endArrow=classic;startArrow=classic;html=1;rounded=0;exitX=0;exitY=0.75;exitDx=0;exitDy=0;exitPerimeter=0;" edge="1" parent="1" source="RCel6x4LegAwR6A3-bCa-18" target="RCel6x4LegAwR6A3-bCa-32">
          <mxGeometry width="50" height="50" relative="1" as="geometry">
            <mxPoint x="370" y="1083" as="sourcePoint" />
            <mxPoint x="420" y="1033" as="targetPoint" />
            <Array as="points">
              <mxPoint x="90" y="823" />
            </Array>
          </mxGeometry>
        </mxCell>
        <mxCell id="RCel6x4LegAwR6A3-bCa-41" value="" style="rounded=1;arcSize=10;dashed=1;strokeColor=#ff0000;fillColor=none;gradientColor=none;dashPattern=8 4;strokeWidth=2;" vertex="1" parent="1">
          <mxGeometry x="381.5" y="613" width="160" height="170" as="geometry" />
        </mxCell>
        <mxCell id="RCel6x4LegAwR6A3-bCa-43" value="" style="sketch=0;outlineConnect=0;fontColor=#232F3E;gradientColor=none;fillColor=#8C4FFF;strokeColor=none;dashed=0;verticalLabelPosition=bottom;verticalAlign=top;align=center;html=1;fontSize=12;fontStyle=0;aspect=fixed;pointerEvents=1;shape=mxgraph.aws4.nat_gateway;" vertex="1" parent="1">
          <mxGeometry x="676" y="631" width="78" height="78" as="geometry" />
        </mxCell>
        <mxCell id="RCel6x4LegAwR6A3-bCa-44" value="" style="rounded=0;whiteSpace=wrap;html=1;" vertex="1" parent="1">
          <mxGeometry x="570" y="800" width="300" height="320" as="geometry" />
        </mxCell>
        <mxCell id="RCel6x4LegAwR6A3-bCa-45" value="" style="rounded=0;whiteSpace=wrap;html=1;" vertex="1" parent="1">
          <mxGeometry x="550" y="610" width="350" height="620" as="geometry" />
        </mxCell>
        <mxCell id="RCel6x4LegAwR6A3-bCa-46" value="" style="rounded=0;whiteSpace=wrap;html=1;" vertex="1" parent="1">
          <mxGeometry x="570" y="640" width="310" height="140" as="geometry" />
        </mxCell>
        <mxCell id="RCel6x4LegAwR6A3-bCa-47" value="" style="rounded=0;whiteSpace=wrap;html=1;" vertex="1" parent="1">
          <mxGeometry x="570" y="790" width="310" height="420" as="geometry" />
        </mxCell>
        <mxCell id="RCel6x4LegAwR6A3-bCa-51" value="PRIVATE SUBNET" style="text;html=1;strokeColor=none;fillColor=none;align=center;verticalAlign=middle;whiteSpace=wrap;rounded=0;" vertex="1" parent="1">
          <mxGeometry x="695" y="790" width="60" height="30" as="geometry" />
        </mxCell>
        <mxCell id="RCel6x4LegAwR6A3-bCa-52" value="PUBLIC SUBNET" style="text;html=1;strokeColor=none;fillColor=none;align=center;verticalAlign=middle;whiteSpace=wrap;rounded=0;" vertex="1" parent="1">
          <mxGeometry x="695" y="640" width="60" height="30" as="geometry" />
        </mxCell>
        <mxCell id="RCel6x4LegAwR6A3-bCa-53" value="" style="sketch=0;outlineConnect=0;fontColor=#232F3E;gradientColor=none;fillColor=#8C4FFF;strokeColor=none;dashed=0;verticalLabelPosition=bottom;verticalAlign=top;align=center;html=1;fontSize=12;fontStyle=0;aspect=fixed;pointerEvents=1;shape=mxgraph.aws4.nat_gateway;" vertex="1" parent="1">
          <mxGeometry x="686" y="680" width="78" height="78" as="geometry" />
        </mxCell>
        <mxCell id="RCel6x4LegAwR6A3-bCa-54" value="NAT" style="text;html=1;strokeColor=none;fillColor=none;align=center;verticalAlign=middle;whiteSpace=wrap;rounded=0;" vertex="1" parent="1">
          <mxGeometry x="695" y="750" width="60" height="30" as="geometry" />
        </mxCell>
        <mxCell id="RCel6x4LegAwR6A3-bCa-55" value="" style="endArrow=classic;startArrow=classic;html=1;rounded=0;exitX=1;exitY=0.75;exitDx=0;exitDy=0;exitPerimeter=0;" edge="1" parent="1" source="RCel6x4LegAwR6A3-bCa-18" target="RCel6x4LegAwR6A3-bCa-53">
          <mxGeometry width="50" height="50" relative="1" as="geometry">
            <mxPoint x="580" y="1360" as="sourcePoint" />
            <mxPoint x="950" y="1030" as="targetPoint" />
            <Array as="points">
              <mxPoint x="820" y="803" />
            </Array>
          </mxGeometry>
        </mxCell>
        <mxCell id="RCel6x4LegAwR6A3-bCa-57" value="" style="endArrow=classic;startArrow=classic;html=1;rounded=0;exitX=0.5;exitY=0;exitDx=0;exitDy=0;exitPerimeter=0;" edge="1" parent="1" source="RCel6x4LegAwR6A3-bCa-12" target="RCel6x4LegAwR6A3-bCa-4">
          <mxGeometry width="50" height="50" relative="1" as="geometry">
            <mxPoint x="800" y="300" as="sourcePoint" />
            <mxPoint x="450" y="840" as="targetPoint" />
          </mxGeometry>
        </mxCell>
        <mxCell id="RCel6x4LegAwR6A3-bCa-58" value="" style="endArrow=classic;startArrow=classic;html=1;rounded=0;entryX=0.145;entryY=0.855;entryDx=0;entryDy=0;entryPerimeter=0;exitX=1;exitY=0;exitDx=0;exitDy=0;" edge="1" parent="1" target="RCel6x4LegAwR6A3-bCa-12">
          <mxGeometry width="50" height="50" relative="1" as="geometry">
            <mxPoint x="268" y="955" as="sourcePoint" />
            <mxPoint x="-450" y="1063" as="targetPoint" />
          </mxGeometry>
        </mxCell>
        <mxCell id="RCel6x4LegAwR6A3-bCa-59" value="" style="endArrow=classic;startArrow=classic;html=1;rounded=0;entryX=0.855;entryY=0.855;entryDx=0;entryDy=0;entryPerimeter=0;exitX=0;exitY=0;exitDx=0;exitDy=0;" edge="1" parent="1" target="RCel6x4LegAwR6A3-bCa-12">
          <mxGeometry width="50" height="50" relative="1" as="geometry">
            <mxPoint x="661" y="956" as="sourcePoint" />
            <mxPoint x="447" y="729" as="targetPoint" />
          </mxGeometry>
        </mxCell>
        <mxCell id="RCel6x4LegAwR6A3-bCa-62" value="" style="group" vertex="1" connectable="0" parent="1">
          <mxGeometry x="30" y="440" width="75" height="120" as="geometry" />
        </mxCell>
        <mxCell id="RCel6x4LegAwR6A3-bCa-37" value="S3 BUCKET" style="text;html=1;strokeColor=none;fillColor=none;align=center;verticalAlign=middle;whiteSpace=wrap;rounded=0;" vertex="1" parent="RCel6x4LegAwR6A3-bCa-62">
          <mxGeometry x="7.5" y="90" width="60" height="30" as="geometry" />
        </mxCell>
        <mxCell id="RCel6x4LegAwR6A3-bCa-35" value="" style="sketch=0;outlineConnect=0;fontColor=#232F3E;gradientColor=none;fillColor=#7AA116;strokeColor=none;dashed=0;verticalLabelPosition=bottom;verticalAlign=top;align=center;html=1;fontSize=12;fontStyle=0;aspect=fixed;pointerEvents=1;shape=mxgraph.aws4.bucket;" vertex="1" parent="RCel6x4LegAwR6A3-bCa-62">
          <mxGeometry width="75" height="78" as="geometry" />
        </mxCell>
        <mxCell id="RCel6x4LegAwR6A3-bCa-63" value="" style="outlineConnect=0;dashed=0;verticalLabelPosition=bottom;verticalAlign=top;align=center;html=1;shape=mxgraph.aws3.ecr;fillColor=#F58534;gradientColor=none;" vertex="1" parent="1">
          <mxGeometry x="811" y="440" width="69" height="72" as="geometry" />
        </mxCell>
        <mxCell id="RCel6x4LegAwR6A3-bCa-64" value="ECR" style="text;html=1;strokeColor=none;fillColor=none;align=center;verticalAlign=middle;whiteSpace=wrap;rounded=0;" vertex="1" parent="1">
          <mxGeometry x="816" y="520" width="60" height="30" as="geometry" />
        </mxCell>
        <mxCell id="RCel6x4LegAwR6A3-bCa-19" value="" style="rounded=0;whiteSpace=wrap;html=1;fillColor=none;dashed=1;dashPattern=8 8;" vertex="1" parent="1">
          <mxGeometry x="50.5" y="837.75" width="819" height="360" as="geometry" />
        </mxCell>
        <mxCell id="RCel6x4LegAwR6A3-bCa-39" value="" style="rounded=1;arcSize=10;dashed=1;strokeColor=#ff0000;fillColor=none;gradientColor=none;dashPattern=8 4;strokeWidth=2;" vertex="1" parent="1">
          <mxGeometry x="65" y="926" width="790" height="260" as="geometry" />
        </mxCell>
        <mxCell id="RCel6x4LegAwR6A3-bCa-40" value="SECURITY GROUP" style="text;html=1;strokeColor=none;fillColor=none;align=center;verticalAlign=middle;whiteSpace=wrap;rounded=0;" vertex="1" parent="1">
          <mxGeometry x="80" y="926" width="60" height="30" as="geometry" />
        </mxCell>
        <mxCell id="RCel6x4LegAwR6A3-bCa-66" value="" style="image;sketch=0;aspect=fixed;html=1;points=[];align=center;fontSize=12;image=img/lib/mscae/Docker.svg;" vertex="1" parent="1">
          <mxGeometry x="146" y="972.5" width="110.37" height="90.5" as="geometry" />
        </mxCell>
        <mxCell id="RCel6x4LegAwR6A3-bCa-27" value="FARGATE DOCKER CONTAINER" style="text;html=1;strokeColor=none;fillColor=none;align=center;verticalAlign=middle;whiteSpace=wrap;rounded=0;" vertex="1" parent="1">
          <mxGeometry x="150" y="1063" width="90" height="60" as="geometry" />
        </mxCell>
        <mxCell id="RCel6x4LegAwR6A3-bCa-67" value="" style="image;sketch=0;aspect=fixed;html=1;points=[];align=center;fontSize=12;image=img/lib/mscae/Docker.svg;" vertex="1" parent="1">
          <mxGeometry x="664.81" y="972.5" width="110.37" height="90.5" as="geometry" />
        </mxCell>
        <mxCell id="RCel6x4LegAwR6A3-bCa-50" value="FARGATE DOCKER CONTAINER" style="text;html=1;strokeColor=none;fillColor=none;align=center;verticalAlign=middle;whiteSpace=wrap;rounded=0;" vertex="1" parent="1">
          <mxGeometry x="680" y="1060" width="90" height="60" as="geometry" />
        </mxCell>
      </root>
    </mxGraphModel>
  </diagram>
</mxfile>
